<svg width="13" height="13" viewBox="0 0 13 13" fill="none" xmlns="http://www.w3.org/2000/svg">
<path d="M10.8614 0.730469H1.20911C0.726489 0.730469 0.304199 1.15446 0.304199 1.63901V3.39553C0.304199 3.88008 0.605835 4.30407 1.02812 4.36464C1.32976 4.42521 1.57107 4.36464 1.75205 4.18293C1.99336 4.00122 2.11401 3.69838 2.11401 3.4561V2.54755H5.13037V11.8753C5.13037 12.3598 5.55266 12.7838 6.03528 12.7838C6.51789 12.7838 6.94018 12.3598 6.94018 11.8753V2.54755H9.95654V3.39553C9.95654 3.88008 10.2582 4.30407 10.6805 4.36464C10.9821 4.42521 11.2234 4.36464 11.4044 4.18293C11.6457 4.00122 11.7664 3.69838 11.7664 3.4561V1.63901C11.7664 1.15446 11.3441 0.730469 10.8614 0.730469Z" fill="#0094FF"/>
<path d="M12.1051 10.1192H11.1399V9.15013C11.1399 8.84728 10.8986 8.54443 10.5366 8.54443C10.235 8.54443 9.93335 8.78671 9.93335 9.15013V10.1192H8.96812C8.66648 10.1192 8.36485 10.3615 8.36485 10.7249C8.36485 11.0278 8.60616 11.3306 8.96812 11.3306H9.93335V12.2997C9.93335 12.6026 10.1747 12.9054 10.5366 12.9054C10.8383 12.9054 11.1399 12.6632 11.1399 12.2997V11.3306H12.1051C12.4068 11.3306 12.7084 11.0884 12.7084 10.7249C12.7084 10.4221 12.4068 10.1192 12.1051 10.1192Z" fill="#0094FF"/>
</svg>
