<svg width="17" height="16" viewBox="0 0 17 16" fill="none" xmlns="http://www.w3.org/2000/svg">
<path d="M14.9057 10.1916C14.6443 9.80433 14.1214 9.80433 13.7293 10.0625L13.5986 10.1916C13.0757 10.966 11.8993 12.7731 11.8993 13.6766C11.8993 14.9673 12.945 15.9999 14.2521 15.9999C15.5592 15.9999 16.605 14.9673 16.605 13.6766C16.605 12.7731 15.2978 10.966 14.9057 10.1916Z" fill="currentColor"/>
<path d="M14.0511 7.89063L6.49044 0.254536C6.15441 -0.0848454 5.65036 -0.0848454 5.31433 0.254536C4.9783 0.593918 4.9783 1.10299 5.31433 1.44237L6.40643 2.54536L1.534 7.80578C0.609922 8.73908 0.609922 10.2663 1.534 11.2844L4.81029 14.5934C5.73437 15.5267 7.2465 15.5267 8.17058 14.5934L13.9671 9.07846C14.1351 8.90877 14.2191 8.73908 14.2191 8.48454C14.3031 8.23001 14.2191 8.06032 14.0511 7.89063ZM6.99448 13.4056C6.74246 13.6601 6.32242 13.6601 6.0704 13.4056L2.71011 10.0966C2.45808 9.84207 2.45808 9.41784 2.71011 9.16331L7.58253 3.7332L12.2869 8.3997L6.99448 13.4056Z" fill="white" fill-opacity="0.6"/>
</svg>
