<svg width="9" height="12" viewBox="0 0 9 12" fill="none" xmlns="http://www.w3.org/2000/svg">
<path opacity="0.6" fill-rule="evenodd" clip-rule="evenodd" d="M0 1.14987V10.7944C0 11.4575 0.548901 12 1.21978 12H4.87912C6.89176 12 8.53846 10.3725 8.53846 8.38329C8.53846 7.29828 8.05055 6.33382 7.25769 5.67076C7.68462 5.06797 7.92857 4.34464 7.92857 3.62129C7.92857 1.6321 6.28187 0.00458308 4.26923 0.00458308H1.21978C0.548901 -0.0556954 0 0.486807 0 1.14987ZM4.26923 7.17772H4.87912C5.48901 7.17772 5.97692 7.59968 6.0989 8.20246C6.0989 8.26274 6.0989 8.56412 6.0989 8.6244C5.97692 9.16691 5.48901 9.64914 4.87912 9.64914H2.43956V7.17772H4.26923ZM2.43956 4.76658V2.35544H4.26923C4.87912 2.35544 5.36703 2.77739 5.48901 3.3199C5.48901 3.38018 5.48901 3.68156 5.48901 3.80212C5.36703 4.34463 4.87912 4.76658 4.26923 4.76658H2.43956Z" fill="white"/>
</svg>
