<svg width="14" height="16" viewBox="0 0 14 16" fill="none" xmlns="http://www.w3.org/2000/svg">
<path d="M8.85779 12.3749C9.25711 12.3749 9.54234 12.034 9.54234 11.6931V7.14764C9.54234 6.74991 9.20006 6.46582 8.85779 6.46582C8.51551 6.46582 8.17324 6.80673 8.17324 7.14764V11.6931C8.11619 12.034 8.45846 12.3749 8.85779 12.3749Z" fill="white" fill-opacity="0.6"/>
<path d="M5.54897 12.3749C5.94829 12.3749 6.23352 12.034 6.23352 11.6931V7.14764C6.23352 6.74991 5.89124 6.46582 5.54897 6.46582C5.20669 6.46582 4.80737 6.74991 4.80737 7.09082V11.6363C4.80737 12.034 5.14965 12.3749 5.54897 12.3749Z" fill="white" fill-opacity="0.6"/>
<path d="M12.851 3.22729H1.44187C1.0996 3.22729 0.757324 3.5682 0.757324 3.90911C0.757324 4.25002 1.0996 4.59093 1.44187 4.59093H1.89824V12.7159C1.89824 14.25 3.15325 15.5 4.69349 15.5H9.71352C11.2538 15.5 12.5088 14.25 12.5088 12.7159V4.64775H12.9651C13.3645 4.64775 13.6497 4.30684 13.6497 3.96593C13.6497 3.62502 13.2504 3.22729 12.851 3.22729ZM11.0256 12.7727C11.0256 13.5114 10.3981 14.1364 9.65648 14.1364H4.69349C3.95189 14.1364 3.32439 13.5114 3.32439 12.7727V4.64775H11.0256V12.7727Z" fill="white" fill-opacity="0.6"/>
<path d="M4.75047 1.92045H9.54232C9.94164 1.92045 10.2269 1.57955 10.2269 1.23864C10.2269 0.897727 9.94164 0.5 9.59937 0.5H4.75047C4.40819 0.5 4.06592 0.840909 4.06592 1.18182C4.06592 1.52273 4.40819 1.92045 4.75047 1.92045Z" fill="white" fill-opacity="0.6"/>
</svg>
