<svg width="98" height="96" viewBox="0 0 98 96" fill="none" xmlns="http://www.w3.org/2000/svg">
<g opacity="0.8">
<path d="M72.9664 50.1635C67.95 50.7536 63.5238 53.1143 59.9829 56.6552L59.0976 57.2454C55.8518 60.7863 53.7862 65.2125 53.4911 69.6387V70.5239H9.52432C6.27845 70.5239 3.62274 67.8682 3.62274 64.6224V63.442L22.8029 44.557C26.0488 41.3111 31.3602 41.016 34.9011 43.9668L39.9175 48.9832C41.3929 50.1635 43.4584 50.1635 45.2289 48.9832L60.2779 33.9341C64.409 29.803 70.3106 28.3276 75.9171 30.0981C77.6876 30.6882 79.163 31.5735 80.6384 32.7538L82.704 34.8194V37.18C82.704 38.0652 83.5892 38.9505 84.4744 38.9505C85.3597 38.9505 86.2449 38.0652 86.2449 37.18V9.44254C86.2449 6.78682 85.3597 4.42619 83.2941 2.65571C81.8187 0.885238 79.4581 0 76.8024 0H9.52432C4.50798 0 0.0817871 4.42619 0.0817871 9.44254V64.9174C0.0817871 70.2289 4.50798 74.36 9.52432 74.6551H52.3108H53.196V75.5403C54.0813 81.4419 57.0321 86.7533 61.7533 90.5893C66.4746 94.1303 72.3762 95.9008 78.2778 95.0155C90.6711 93.5401 99.2284 82.032 97.753 69.9338C96.5727 57.5405 85.0646 48.6881 72.9664 50.1635ZM3.62274 9.44254C3.62274 6.19666 6.27845 3.54095 9.52432 3.54095H76.8024C80.0483 3.54095 82.704 6.19666 82.704 9.44254V29.803L80.9335 28.6227C79.7532 27.7374 78.2778 27.1473 77.0975 26.8522C70.3106 24.7867 62.9337 26.2621 57.9173 31.2784L42.5732 46.3274L38.147 42.1963C33.1307 37.4751 25.1635 37.4751 20.1472 42.1963L3.62274 58.4257V9.44254ZM89.1957 85.8681C85.3597 89.7041 80.6384 91.4746 75.9171 91.4746C71.1959 91.4746 66.1795 89.7041 62.6386 85.8681C55.2616 78.4911 55.2616 66.6879 62.6386 59.3109C70.0156 51.9339 81.8187 51.9339 89.1957 59.3109C96.2776 66.6879 96.2776 78.4911 89.1957 85.8681Z" fill="white"/>
<path d="M28.1148 9.73779C22.8034 9.73779 18.3772 14.164 18.3772 19.4754C18.3772 24.7868 22.8034 29.213 28.1148 29.5081C33.4262 29.5081 37.8524 25.0819 37.8524 19.7705C37.8524 14.164 33.4262 9.73779 28.1148 9.73779ZM28.1148 25.6721C26.3443 25.6721 24.8689 25.0819 23.6886 23.9016C22.5083 22.7213 21.9181 21.2459 21.9181 19.7705C21.9181 16.2295 24.5739 13.5738 28.1148 13.5738C31.3607 13.5738 34.3115 16.2295 34.3115 19.7705C34.0164 23.0164 31.3607 25.6721 28.1148 25.6721Z" fill="white"/>
<path d="M75.6225 61.9663C75.0323 61.9663 74.7373 62.2614 74.1471 62.5565L64.4095 71.999C64.1144 72.2941 63.8193 72.8842 63.8193 73.1793C63.8193 73.7695 64.1144 74.0646 64.4095 74.6547C64.9996 75.2449 65.2947 75.2449 65.8849 75.2449C66.475 75.2449 66.7701 74.9498 67.0652 74.6547L73.5569 68.163V81.4415C73.5569 82.3268 74.4422 83.212 75.3274 83.212C76.2127 83.212 77.0979 82.3268 77.0979 81.4415V68.163L83.2946 74.3596C83.8847 74.9498 85.065 74.9498 85.9503 74.3596C86.5404 73.7695 86.5404 72.5892 85.9503 71.7039L76.8028 62.2614C76.8028 62.2614 76.2127 61.9663 75.6225 61.9663Z" fill="white"/>
</g>
</svg>
