<svg width="9" height="12" viewBox="0 0 9 12" fill="none" xmlns="http://www.w3.org/2000/svg">
<path d="M7.12193 1.77778H8.08742C8.58139 1.77778 8.98555 1.37778 8.98555 0.888889C8.98555 0.4 8.58139 0 8.08742 0H4.4949C4.00093 0 3.59678 0.4 3.59678 0.888889C3.59678 1.37778 4.00093 1.77778 4.4949 1.77778H5.10114L2.69865 10.2222H1.57599C1.08201 10.2222 0.677856 10.6222 0.677856 11.1111C0.677856 11.6 1.08201 12 1.57599 12H5.1685C5.66247 12 6.06663 11.6 6.06663 11.1111C6.06663 10.6222 5.66247 10.2222 5.1685 10.2222H4.56226L6.96476 1.77778H7.12193Z" fill="white" fill-opacity="0.6"/>
</svg>
