<svg width="20" height="14" viewBox="0 0 20 14" fill="none" xmlns="http://www.w3.org/2000/svg">
<path d="M9.80632 5.52046C9.83938 5.7532 9.93858 5.98593 10.1039 6.15217C10.2693 6.31841 10.5007 6.41816 10.6991 6.45141C10.9637 6.48465 11.2282 6.38491 11.4266 6.18542L13.6421 3.99105V12.4028C13.6421 12.7353 13.7744 13.0345 13.9728 13.234C14.1712 13.4003 14.4357 13.5 14.7333 13.5C15.0309 13.5 15.2955 13.4003 15.4939 13.234C15.7253 13.0345 15.8245 12.7353 15.8245 12.4028V4.15729L17.8416 6.28517C18.2054 6.68414 18.7675 6.68414 19.1643 6.28517C19.3297 6.11893 19.4619 5.88619 19.495 5.65345C19.5281 5.38747 19.4619 5.08824 19.2635 4.88875L15.3616 0.765985C15.1963 0.599744 14.9979 0.5 14.7664 0.5H14.7333C14.5349 0.5 14.3034 0.566496 14.1381 0.699489L10.0709 4.789C9.87245 4.98849 9.77325 5.25448 9.80632 5.52046Z" fill="white" fill-opacity="0.6"/>
<path d="M7.62381 10.3084L2.33307 7.51556L7.62381 4.72272L8.81423 5.38768C8.81423 4.88896 9.01264 4.39024 9.37637 4.02451L9.57478 3.82502L8.11982 2.99382C7.82222 2.82758 7.42541 2.82758 7.12781 2.99382L0.778911 6.51812C0.382105 6.71761 0.150635 7.11658 0.150635 7.54881C0.150635 7.98103 0.382105 8.38001 0.778911 8.5795L7.12781 12.0705C7.29314 12.137 7.45848 12.2035 7.62381 12.2035C7.78915 12.2035 7.95449 12.1703 8.11982 12.0705L12.65 9.11147V7.11658L7.62381 10.3084Z" fill="white" fill-opacity="0.6"/>
</svg>
