<svg width="20" height="14" viewBox="0 0 20 14" fill="none" xmlns="http://www.w3.org/2000/svg">
<path d="M12.641 7.58061V5.62398L8.25428 3.07041C7.95743 2.90459 7.56164 2.90459 7.26479 3.07041L0.932093 6.55255C0.5363 6.75153 0.30542 7.14949 0.30542 7.58061C0.30542 8.01173 0.5363 8.40969 0.932093 8.60867L7.26479 12.0908C7.42971 12.1571 7.59462 12.2235 7.75953 12.2235C7.92445 12.2235 8.08936 12.1903 8.25428 12.0908L10.3652 10.7311L9.07885 9.37143L7.75953 10.3995L2.48229 7.61377L7.75953 4.82806L12.641 7.58061Z" fill="white" fill-opacity="0.6"/>
<path d="M19.6334 8.45918C19.6004 8.22704 19.5014 7.9949 19.3365 7.82908C19.1716 7.66327 18.9407 7.56378 18.7428 7.53061C18.479 7.49745 18.2151 7.59694 18.0172 7.79592L15.8074 9.98469V1.59439C15.8074 1.26276 15.6754 0.964286 15.4775 0.765306C15.2467 0.59949 14.9828 0.5 14.6859 0.5C14.3891 0.5 14.1582 0.59949 13.9603 0.765306C13.7294 0.964286 13.6305 1.26276 13.6305 1.59439V9.81888L11.6185 7.69643C11.2557 7.29847 10.695 7.29847 10.2992 7.69643C10.1343 7.86225 10.0024 8.09439 9.9694 8.32653C9.93642 8.59184 10.0024 8.89031 10.2003 9.08928L14.1252 13.2347C14.2572 13.4005 14.488 13.5 14.7189 13.5H14.7519C14.9498 13.5 15.1807 13.4337 15.3456 13.301L19.4025 9.2551C19.5674 8.9898 19.6663 8.72449 19.6334 8.45918Z" fill="white" fill-opacity="0.6"/>
</svg>
