<svg width="18" height="15" viewBox="0 0 18 15" fill="none" xmlns="http://www.w3.org/2000/svg">
<path d="M8.71193 13.1528C8.45789 13.4069 8.04219 13.4069 7.81124 13.1528L4.5087 9.91958H2.73041C2.82279 10.3353 3.03064 10.7279 3.33087 11.0743L6.56413 14.3076C7.46482 15.2314 8.96598 15.2314 9.86667 14.3076L14.4856 9.89648H12.1299L8.71193 13.1528Z" fill="white" fill-opacity="0.6"/>
<path d="M9.28935 3.66051L12.7536 7.07853H14.9937L8.227 0.242494C7.90367 -0.0808315 7.39559 -0.0808315 7.07226 0.242494C6.74894 0.56582 6.74894 1.0739 7.07226 1.39723L8.13462 2.48268L3.88519 7.07853H6.21776L9.28935 3.66051Z" fill="white" fill-opacity="0.6"/>
<path d="M17.2338 9.22547H1.02136C0.628746 9.22547 0.30542 8.90215 0.30542 8.48644C0.30542 8.09383 0.628746 7.77051 1.02136 7.77051H17.2338C17.6264 7.77051 17.9498 8.09383 17.9498 8.48644C17.9498 8.90215 17.6264 9.22547 17.2338 9.22547Z" fill="white" fill-opacity="0.6"/>
</svg>
