<svg width="13" height="16" viewBox="0 0 13 16" fill="none" xmlns="http://www.w3.org/2000/svg">
<rect x="0.992334" y="13.5529" width="10.8858" height="2.141" fill="currentColor" stroke="#5B5B5B" stroke-width="0.3"/>
<path d="M6.5167 0H6.0433C5.20787 0 4.45599 0.530104 4.20537 1.31131L1.05861 10.5184C0.863677 11.1043 1.17 11.746 1.75479 11.9413C2.33959 12.1366 2.98008 11.8297 3.17501 11.2438L4.03828 8.64906H8.49387L9.38499 11.2438C9.57992 11.8297 10.2204 12.1366 10.8052 11.9413C11.39 11.746 11.6963 11.1043 11.5014 10.5184L8.35463 1.31131C8.07616 0.530104 7.32428 0 6.5167 0ZM4.79016 6.41704L6.21038 2.23201H6.29392L7.71414 6.41704H4.79016Z" fill="white" fill-opacity="0.6"/>
</svg>
