<svg width="15" height="14" viewBox="0 0 15 14" fill="none" xmlns="http://www.w3.org/2000/svg">
<path d="M11.6584 0H2.78518C1.38025 0 0.221802 1.15845 0.221802 2.56338V11.4366C0.221802 12.8415 1.38025 14 2.78518 14H11.6584C13.0634 14 14.2218 12.8415 14.2218 11.4366V2.56338C14.2218 1.15845 13.0634 0 11.6584 0ZM1.89786 7.83803H7.69011L6.38377 9.11972C6.06335 9.44014 6.06335 9.98239 6.38377 10.3028C6.7042 10.6232 7.24645 10.6232 7.56687 10.3028L10.2781 7.59155C10.5986 7.27113 10.5986 6.72887 10.2781 6.40845L7.56687 3.69718C7.24645 3.37676 6.7042 3.37676 6.38377 3.69718C6.06335 4.01761 6.06335 4.55986 6.38377 4.88028L7.66546 6.16197H1.89786V2.56338C1.89786 2.07042 2.29222 1.67606 2.78518 1.67606H11.6584C12.1514 1.67606 12.5457 2.07042 12.5457 2.56338V11.4366C12.5457 11.9296 12.1514 12.3239 11.6584 12.3239H2.78518C2.29222 12.3239 1.89786 11.9296 1.89786 11.4366V7.83803Z" fill="white" fill-opacity="0.6"/>
</svg>
