<svg width="26" height="26" viewBox="0 0 26 26" fill="none" xmlns="http://www.w3.org/2000/svg">
<path fill-rule="evenodd" clip-rule="evenodd" d="M12.9072 0.781982C6.06406 0.781982 0.5 6.34963 0.5 13.1972C0.5 20.0448 6.06406 25.6124 12.9072 25.6124C19.7504 25.6124 25.3144 20.0448 25.3144 13.1972C25.3144 6.34963 19.7504 0.781982 12.9072 0.781982ZM22.9001 13.1972C22.9001 15.4691 22.1487 17.5649 20.8696 19.2288L6.87948 5.2297C8.5583 3.94978 10.6528 3.19783 12.9072 3.19783C18.4233 3.19783 22.9001 7.67755 22.9001 13.1972ZM2.91429 13.1972C2.91429 10.9093 3.68175 8.79747 4.99282 7.10158L18.9989 21.1167C17.3201 22.4126 15.2096 23.1806 12.9232 23.1806C7.39112 23.1806 2.91429 18.7168 2.91429 13.1972Z" fill="#231F20"/>
</svg>
