<svg width="17" height="16" viewBox="0 0 17 16" fill="none" xmlns="http://www.w3.org/2000/svg">
<path d="M12.6726 0.451172H3.78136C1.79171 0.451172 0.237305 1.99167 0.237305 3.9635V12.2822C0.237305 14.1924 1.79171 15.7945 3.78136 15.7945H9.93682C10.3721 15.7945 10.6829 15.4248 10.6829 15.0551C10.6829 14.6853 10.3099 14.3156 9.93682 14.3156H3.78136C2.72436 14.3156 1.79171 13.4529 1.79171 12.3438V11.666C2.66218 11.2346 3.34612 10.4336 3.78136 9.81738C4.15442 9.38604 4.52747 8.89308 4.83836 8.76985C5.02489 8.70823 5.14924 8.76985 5.771 9.44766C6.33059 10.1255 7.07671 10.9265 8.25806 10.8033C9.50159 10.6801 10.2477 9.50928 10.9316 8.40013C11.4291 7.53745 12.0508 6.61315 12.6104 6.61315C13.17 6.61315 14.1026 7.59907 14.6622 8.52337V9.01632C14.6622 9.44766 15.0353 9.75576 15.4083 9.75576C15.7814 9.75576 16.1545 9.38604 16.1545 9.01632V3.9635C16.2166 1.99167 14.6 0.451172 12.6726 0.451172ZM6.95235 8.40013C6.39277 7.72231 5.5223 6.73639 4.21659 7.29097C3.53265 7.59907 3.09742 8.15365 2.60001 8.83146C2.3513 9.13956 2.1026 9.44766 1.79171 9.75576V3.9635C1.79171 2.91596 2.66218 1.99167 3.78136 1.99167H12.6726C13.7296 1.99167 14.6622 2.85434 14.6622 3.9635V6.05857C13.9783 5.38076 13.2943 5.07266 12.6104 5.07266C11.1803 5.07266 10.3099 6.42829 9.62594 7.59907C9.12853 8.40013 8.63111 9.2628 8.1337 9.32442C7.76065 9.32442 7.38759 8.9547 6.95235 8.40013Z" fill="#0094FF"/>
<path d="M4.34078 5.99697C5.0619 5.99697 5.64649 5.41762 5.64649 4.70295C5.64649 3.98829 5.0619 3.40894 4.34078 3.40894C3.61966 3.40894 3.03508 3.98829 3.03508 4.70295C3.03508 5.41762 3.61966 5.99697 4.34078 5.99697Z" fill="#0094FF"/>
<path d="M16.0301 12.3446H14.9731V11.2971C14.9731 10.8657 14.6622 10.5576 14.227 10.5576C13.7917 10.5576 13.4808 10.8657 13.4808 11.2971V12.3446H12.4238C11.9886 12.3446 11.6777 12.6527 11.6777 13.084C11.6777 13.5154 11.9886 13.8235 12.4238 13.8235H13.4808V14.871C13.4808 15.3023 13.7917 15.6104 14.227 15.6104C14.6622 15.6104 14.9731 15.3023 14.9731 14.871V13.8235H16.0301C16.4653 13.8235 16.7762 13.5154 16.7762 13.084C16.7762 12.7143 16.4653 12.3446 16.0301 12.3446Z" fill="#0094FF"/>
</svg>
