<svg width="20" height="10" viewBox="0 0 20 10" fill="none" xmlns="http://www.w3.org/2000/svg">
<path d="M4.75594 4.71014V6.15144H6.91789V6.3316C6.91789 7.23242 6.73773 7.59274 6.55757 7.59274C6.55757 7.95307 6.19724 8.13323 4.93611 8.13323C3.85513 8.13323 3.31465 7.95307 3.13448 7.7729C3.13448 7.59274 2.95432 7.05225 2.95432 6.15144V5.07047V4.16966C2.95432 3.08868 3.13448 2.72836 3.31465 2.54819C3.49481 2.36803 3.85513 2.18787 5.11627 2.18787C6.19724 2.18787 6.55757 2.36803 6.73773 2.36803C6.91789 2.36803 7.09806 2.72836 7.09806 3.26884V3.44901H9.07984C9.07984 2.18787 8.89968 1.46722 8.35919 1.10689C7.63854 0.746569 6.73773 0.566406 5.11627 0.566406C3.85513 0.566406 2.95432 0.746569 2.41383 0.926731C1.87335 1.10689 1.51302 1.64738 1.33286 2.18787C1.1527 2.72836 0.972534 3.98949 0.972534 5.97128C0.972534 7.59274 1.1527 8.49355 1.69318 9.03404C2.23367 9.57453 3.31465 9.75469 4.93611 9.75469C6.73773 9.75469 7.81871 9.57453 8.17903 9.2142C8.71952 8.85388 8.89968 7.95307 8.89968 6.69193V4.89031H4.75594V4.71014Z" fill="#0094FF"/>
<path d="M11.9624 0.566406H9.98059V9.75469H11.9624V0.566406Z" fill="#0094FF"/>
<path d="M19.3492 2.36803V0.566406H13.2236V9.75469H15.0253V6.15144H18.9888V4.52998H15.0253V2.36803H19.3492Z" fill="#0094FF"/>
</svg>
