<svg xmlns="http://www.w3.org/2000/svg" width="25" height="26" viewBox="0 0 25 26" fill="none">
    <path fill-rule="evenodd" clip-rule="evenodd" d="M12.4302 0.781982C5.58701 0.781982 0.0229492 6.34963 0.0229492 13.1972C0.0229492 20.0448 5.58701 25.6124 12.4302 25.6124C19.2733 25.6124 24.8374 20.0448 24.8374 13.1972C24.8374 6.34963 19.2733 0.781982 12.4302 0.781982ZM22.4231 13.1972C22.4231 15.4691 21.6716 17.5649 20.3925 19.2288L6.40243 5.2297C8.08124 3.94978 10.1758 3.19783 12.4302 3.19783C17.9463 3.19783 22.4231 7.67755 22.4231 13.1972ZM2.43724 13.1972C2.43724 10.9093 3.2047 8.79747 4.51577 7.10158L18.5219 21.1167C16.843 22.4126 14.7325 23.1806 12.4462 23.1806C6.91407 23.1806 2.43724 18.7168 2.43724 13.1972Z" fill="#231F20"/>
</svg>