<svg xmlns="http://www.w3.org/2000/svg" width="13" height="13" viewBox="0 0 13 13" fill="none">
    <path d="M12.1068 11.324L8.16731 7.32998C8.70402 6.58111 9.02337 5.66045 9.02337 4.66731C9.02337 2.16837 7.01876 0.133792 4.55526 0.133792C2.08908 0.131108 0.0844727 2.16569 0.0844727 4.66463C0.0844727 7.16357 2.08908 9.19815 4.55258 9.19815C5.62063 9.19815 6.60012 8.817 7.3703 8.18086L11.2883 12.1561L12.1068 11.324ZM4.55258 8.15133C2.65799 8.15133 1.11495 6.58648 1.11495 4.66463C1.11495 2.74278 2.65799 1.17792 4.55258 1.17792C6.44716 1.17792 7.9902 2.74278 7.9902 4.66463C7.9902 6.58648 6.44984 8.15133 4.55258 8.15133Z" fill="black"/>
</svg>